<svg xmlns="http://www.w3.org/2000/svg" viewBox="0 0 512 512" role="img" aria-labelledby="title desc">
  <title id="title">GeoDoku France</title>
  <desc id="desc">Icône GeoDoku France avec une grille et une silhouette cartographique stylisée.</desc>
  <defs>
    <linearGradient id="bg" x1="80" y1="40" x2="440" y2="470" gradientUnits="userSpaceOnUse">
      <stop offset="0" stop-color="#1e314f"/>
      <stop offset="0.58" stop-color="#273a5c"/>
      <stop offset="1" stop-color="#7a4f35"/>
    </linearGradient>
    <radialGradient id="glow" cx="45%" cy="32%" r="62%">
      <stop offset="0" stop-color="#fff5d4" stop-opacity=".25"/>
      <stop offset=".55" stop-color="#fff5d4" stop-opacity=".08"/>
      <stop offset="1" stop-color="#fff5d4" stop-opacity="0"/>
    </radialGradient>
    <filter id="shadow" x="-20%" y="-20%" width="140%" height="140%">
      <feDropShadow dx="0" dy="14" stdDeviation="18" flood-color="#101827" flood-opacity=".35"/>
    </filter>
  </defs>
  <rect width="512" height="512" rx="112" fill="url(#bg)"/>
  <rect width="512" height="512" rx="112" fill="url(#glow)"/>
  <path d="M254 78 349 126 380 214 358 318 286 392 190 374 123 298 139 188Z"
        fill="#fff6df" opacity=".16"/>
  <path d="M254 78 349 126 380 214 358 318 286 392 190 374 123 298 139 188Z"
        fill="none" stroke="#fff3d5" stroke-width="14" stroke-linejoin="round" opacity=".9" filter="url(#shadow)"/>
  <g transform="translate(148 151)" filter="url(#shadow)">
    <rect x="0" y="0" width="216" height="216" rx="26" fill="#fff8e6" opacity=".94"/>
    <path d="M72 12v192M144 12v192M12 72h192M12 144h192" stroke="#273a5c" stroke-width="12" stroke-linecap="round" opacity=".74"/>
    <rect x="84" y="84" width="48" height="48" rx="13" fill="#7a4f35"/>
    <rect x="24" y="24" width="36" height="36" rx="10" fill="#273a5c" opacity=".9"/>
    <rect x="156" y="156" width="36" height="36" rx="10" fill="#273a5c" opacity=".9"/>
  </g>
  <path d="M398 106 421 164 480 185 421 206 398 264 376 206 317 185 376 164Z"
        fill="#fff0bf" opacity=".95"/>
</svg>
