<svg xmlns="http://www.w3.org/2000/svg" viewBox="0 0 900 560" role="img" aria-label="Illustration originale de Fort Boyard">
  <defs>
    <linearGradient id="sea" x1="0" y1="0" x2="900" y2="560">
      <stop offset="0" stop-color="#223653"/>
      <stop offset=".62" stop-color="#2f5f73"/>
      <stop offset="1" stop-color="#8a725c"/>
    </linearGradient>
    <radialGradient id="sun" cx="74%" cy="24%" r="38%">
      <stop offset="0" stop-color="#fff1bd" stop-opacity=".72"/>
      <stop offset="1" stop-color="#fff1bd" stop-opacity="0"/>
    </radialGradient>
  </defs>
  <rect width="900" height="560" rx="48" fill="url(#sea)"/>
  <rect width="900" height="560" rx="48" fill="url(#sun)"/>
  <path d="M0 396c92-34 173-34 264 0s174 34 265 0 181-34 371 0v164H0Z" fill="#fff8df" opacity=".18"/>
  <ellipse cx="454" cy="330" rx="228" ry="62" fill="#152137" opacity=".28"/>
  <path d="M238 220c0-54 46-95 103-95h220c57 0 103 41 103 95v112c0 54-46 95-103 95H341c-57 0-103-41-103-95Z" fill="#dcc49b"/>
  <path d="M263 228c0-40 35-70 78-70h220c43 0 78 30 78 70v95c0 40-35 70-78 70H341c-43 0-78-30-78-70Z" fill="#8d6b49" opacity=".54"/>
  <g fill="#263a59" opacity=".82">
    <rect x="316" y="205" width="42" height="54" rx="12"/>
    <rect x="398" y="205" width="42" height="54" rx="12"/>
    <rect x="480" y="205" width="42" height="54" rx="12"/>
    <rect x="562" y="205" width="42" height="54" rx="12"/>
  </g>
  <path d="M274 317h356" stroke="#f9edce" stroke-width="20" stroke-linecap="round" opacity=".52"/>
  <path d="M324 374h256" stroke="#263a59" stroke-width="18" stroke-linecap="round" opacity=".58"/>
</svg>
