<svg xmlns="http://www.w3.org/2000/svg" viewBox="0 0 900 560" role="img" aria-label="Illustration originale d'un paysage urbain parisien">
  <defs>
    <linearGradient id="bg" x1="0" y1="0" x2="900" y2="560">
      <stop offset="0" stop-color="#223653"/>
      <stop offset=".64" stop-color="#3f4e6d"/>
      <stop offset="1" stop-color="#8a725c"/>
    </linearGradient>
  </defs>
  <rect width="900" height="560" rx="48" fill="url(#bg)"/>
  <path d="M118 386c110-26 214-26 314 0 120 31 227 27 350-8" fill="none" stroke="#fff8e7" stroke-width="18" stroke-linecap="round" opacity=".3"/>
  <path d="M184 330h94v124h-94zM330 262h112v192H330zM494 304h90v150h-90zM636 226h82v228h-82z" fill="#f6f0e4" opacity=".72"/>
  <g fill="#273a5c" opacity=".68">
    <rect x="204" y="358" width="18" height="26" rx="4"/>
    <rect x="240" y="358" width="18" height="26" rx="4"/>
    <rect x="358" y="300" width="20" height="32" rx="4"/>
    <rect x="398" y="300" width="20" height="32" rx="4"/>
    <rect x="518" y="334" width="18" height="28" rx="4"/>
    <rect x="674" y="260" width="18" height="34" rx="4"/>
  </g>
  <path d="M312 454h426" stroke="#fff8e7" stroke-width="13" stroke-linecap="round" opacity=".6"/>
  <path d="M612 198 676 118 740 198Z" fill="#fff1bd" opacity=".72"/>
</svg>
